<svg height="0" width="0">
      <defs>
        <clipPath id="svg__path4" clipPathUnits="objectBoundingBox">
          <path id="svg__rec4" data-name="rec4" d="M0,0H1V1H0Z"/>
          <path id="svg__star4" data-name="star4" d="M 0.5 0.0390625 C 0.472656 0.214844 0.449219 0.320312 0.382812 0.382812 C 0.320312 0.449219 0.214844 0.472656 0.0390625 0.5 C 0.214844 0.527344 0.320312 0.550781 0.382812 0.617188 C 0.449219 0.679688 0.472656 0.785156 0.5 0.960938 C 0.527344 0.785156 0.550781 0.679688 0.617188 0.617188 C 0.679688 0.550781 0.785156 0.527344 0.960938 0.5 C 0.785156 0.472656 0.679688 0.449219 0.617188 0.382812 C 0.550781 0.320312 0.527344 0.214844 0.5 0.0390625 Z M 0.828125 0.171875 C 0.738281 0.238281 0.667969 0.285156 0.605469 0.3125 C 0.617188 0.328125 0.628906 0.34375 0.640625 0.359375 C 0.65625 0.371094 0.671875 0.382812 0.6875 0.394531 C 0.714844 0.332031 0.761719 0.261719 0.828125 0.171875 Z M 0.175781 0.175781 C 0.238281 0.261719 0.285156 0.332031 0.3125 0.394531 C 0.328125 0.382812 0.34375 0.371094 0.359375 0.359375 C 0.371094 0.34375 0.382812 0.328125 0.394531 0.3125 C 0.332031 0.285156 0.261719 0.238281 0.175781 0.175781 Z M 0.6875 0.605469 C 0.671875 0.617188 0.65625 0.628906 0.640625 0.640625 C 0.628906 0.65625 0.617188 0.671875 0.605469 0.6875 C 0.667969 0.714844 0.738281 0.761719 0.828125 0.828125 C 0.761719 0.738281 0.714844 0.667969 0.6875 0.605469 Z M 0.3125 0.605469 C 0.285156 0.667969 0.238281 0.738281 0.171875 0.828125 C 0.261719 0.761719 0.332031 0.714844 0.394531 0.6875 C 0.382812 0.671875 0.371094 0.65625 0.359375 0.640625 C 0.34375 0.628906 0.328125 0.617188 0.3125 0.605469 Z M 0.3125 0.605469 "/>
        </clipPath>
      </defs>
    </svg>